<?xml version="1.0" ?>
<!DOCTYPE svg  PUBLIC '-//W3C//DTD SVG 1.1//EN'  'http://www.w3.org/Graphics/SVG/1.1/DTD/svg11.dtd'>
<!-- Uploaded to: SVG Repo, www.svgrepo.com, Generator: SVG Repo Mixer Tools -->
<svg fill="#000000" width="800px" height="800px" viewBox="0 0 250 250" style="fill-rule:evenodd;clip-rule:evenodd;stroke-linecap:round;stroke-linejoin:round;stroke-miterlimit:1.5;" version="1.1" xml:space="preserve" xmlns="http://www.w3.org/2000/svg" xmlns:serif="http://www.serif.com/" xmlns:xlink="http://www.w3.org/1999/xlink">
<g transform="matrix(0.948076,0,0,0.948076,13.1515,40.9163)">
<path d="M187.696,57.343L194.962,51.406C208.211,40.581 227.756,42.548 238.582,55.797C249.407,69.046 247.44,88.592 234.191,99.417L188.156,137.032L188.156,57.343L187.696,57.343Z" style="fill:none;stroke:black;stroke-width:7.91px;"/>
</g>
<g transform="matrix(0.948076,0,0,0.948076,13.1515,40.9163)">
<path d="M187.696,57.343L194.962,51.406C208.211,40.581 227.756,42.548 238.582,55.797C249.407,69.046 247.44,88.592 234.191,99.417L188.156,137.032L188.156,57.343L187.696,57.343Z" style="fill:none;stroke:black;stroke-width:7.91px;"/>
</g>
<g transform="matrix(0.522974,-0.640952,0.775495,0.632752,-22.7777,95.5201)">
<path d="M27.279,56.905L13.571,56.924L10.533,165.122L31.163,165.122L27.279,56.905Z" style="fill:rgb(15,169,84);"/>
</g>
<path d="M96.166,171.302L95.907,160.326L121.571,180.028L110.782,193.25L28.464,122.84L32.994,117.269L96.166,171.302Z" style="fill:rgb(14,124,63);"/>
<g transform="matrix(0.522974,-0.640952,0.775495,0.632752,-22.7777,95.5201)">
<path d="M27.279,56.905L13.571,56.924L10.533,165.122L31.163,165.122L27.279,56.905Z" style="fill:none;stroke:black;stroke-width:8.17px;"/>
</g>
<g transform="matrix(0.619492,-0.717689,-0.717689,-0.619492,24.3021,172.356)">
<path d="M74.939,47.166L23.439,47.166L44.039,31.166L54.339,31.166L74.939,47.166Z" style="fill:rgb(15,169,84);"/>
</g>
<path d="M33.545,105.794L35.597,114.051L29.216,121.443L4.972,126.315L12.077,118.083L25.216,115.443L33.545,105.794Z" style="fill:rgb(14,124,63);"/>
<g transform="matrix(0.619492,-0.717689,-0.717689,-0.619492,24.3021,172.356)">
<path d="M74.939,47.166L23.439,47.166L44.039,31.166L54.339,31.166L74.939,47.166Z" style="fill:none;stroke:black;stroke-width:7.91px;"/>
</g>
<g transform="matrix(0.948076,0,0,0.948076,13.1515,40.9163)">
<rect height="115.035" style="fill:rgb(15,169,84);stroke:black;stroke-width:7.91px;" width="91.259" x="96.897" y="57.343"/>
</g>
<rect height="109.062" style="fill:rgb(14,124,63);" width="22" x="169.537" y="95.281"/>
<g transform="matrix(0.948076,0,0,0.948076,13.1515,40.9163)">
<rect height="115.035" style="fill:none;stroke:black;stroke-width:7.91px;" width="91.259" x="96.897" y="57.343"/>
</g>
<g transform="matrix(0.944147,0,0,1.2903,6.60097,32.4103)">
<rect height="53" style="fill:rgb(15,169,84);stroke:black;stroke-width:6.63px;" width="15.062" x="142.526" y="10.266"/>
</g>
<g transform="matrix(0.712261,0,0,0.948076,47.4737,2.51919)">
<path d="M95.897,197.878L187.156,197.878" style="fill:none;stroke:black;stroke-width:8.94px;"/>
</g>
<g transform="matrix(0.712261,0,0,0.948076,47.4737,-63.8461)">
<path d="M95.897,197.878L187.156,197.878" style="fill:none;stroke:black;stroke-width:8.94px;"/>
</g>
<g transform="matrix(0.712261,0,0,0.948076,47.4737,-51.5211)">
<path d="M95.897,197.878L187.156,197.878" style="fill:none;stroke:black;stroke-width:8.94px;"/>
</g>
</svg>